Coordinates
version=1
nRows=14
nColumns=24
inDegrees=yes

Units are S.I. units (second, meters, Newtons, ...)
Angles are in degrees.

endheader
time	pelvis_tilt	pelvis_list	pelvis_rotation	pelvis_tx	pelvis_ty	pelvis_tz	hip_flexion_r	hip_adduction_r	hip_rotation_r	knee_angle_r	ankle_angle_r	subtalar_angle_r	mtp_angle_r	hip_flexion_l	hip_adduction_l	hip_rotation_l	knee_angle_l	ankle_angle_l	subtalar_angle_l	mtp_angle_l	lumbar_extension	lumbar_bending	lumbar_rotation
      3.93500000	     -9.77965605	     -2.72413313	     -4.44074997	     -1.25046136	     -0.00413876	     -0.67098250	      3.31095529	      6.70652594	     -5.17925717	     -4.43417658	      4.09489797	     -4.82125136	      8.69698926	     35.70915405	     -8.12938454	    -16.64840163	    -51.36140209	     -2.73516969	    -13.61491392	      4.16333280	      7.05750561	      5.63801597	     -0.21700563
      3.94000000	     -9.97567808	     -2.65684267	     -4.59312625	     -1.24494696	     -0.00484224	     -0.67069068	      3.12324565	      6.64989157	     -5.07183181	     -4.37730779	      4.34915844	     -4.73069612	      8.75867369	     36.08332472	     -8.08750783	    -16.97788364	    -49.70508053	     -2.42174560	    -13.56075983	      3.93462637	      7.16868164	      5.56556332	      0.02740717
      3.94500000	    -10.09634472	     -2.60179829	     -4.82738323	     -1.23946840	     -0.00547847	     -0.67038087	      2.87559099	      6.59561812	     -4.97724859	     -4.35831915	      4.62834437	     -4.47899022	      8.87855584	     36.32409456	     -8.10847168	    -17.44784267	    -47.99438571	     -1.99190168	    -13.43673711	      3.18793598	      7.17820315	      5.52630334	      0.41873418
      3.95000000	    -10.22846958	     -2.55225555	     -4.85695172	     -1.23385990	     -0.00622303	     -0.67036466	      2.61289290	      6.52790922	     -5.08220679	     -4.29314348	      4.92158436	     -4.28433666	      9.10421343	     36.59407827	     -7.97196391	    -17.69799046	    -46.26805118	     -1.25140440	    -13.02334262	      1.49506276	      7.23559537	      5.45532995	      0.52119371
      3.95500000	    -10.47693471	     -2.53401471	     -4.93363943	     -1.22830273	     -0.00709023	     -0.67022481	      2.48724536	      6.52100615	     -5.04179238	     -4.25297583	      5.13825318	     -4.28199240	      9.13813437	     36.94114513	     -7.90931215	    -17.94611475	    -44.39575284	     -1.00023394	    -12.79392728	      1.43002801	      7.40526412	      5.42212361	      0.65737408
      3.96000000	    -10.67520303	     -2.49761896	     -5.11963801	     -1.22273757	     -0.00791199	     -0.66999601	      2.32720659	      6.48976343	     -4.96708554	     -4.25259480	      5.41701302	     -4.12316217	      9.19795623	     37.15826554	     -7.90269347	    -18.37713070	    -42.44681606	     -0.67294268	    -12.44579196	      1.25174746	      7.51106707	      5.39232601	      0.96719373
      3.96500000	    -10.86471012	     -2.47353719	     -5.21026806	     -1.21711664	     -0.00875989	     -0.66992942	      2.14214866	      6.46031019	     -4.97288215	     -4.22978692	      5.67582707	     -3.99424435	      9.24366991	     37.34326313	     -7.82751831	    -18.72279055	    -40.42708358	     -0.35402818	    -11.99040626	      1.08776002	      7.61322235	      5.36548178	      1.15218144
      3.97000000	    -11.04534172	     -2.45384658	     -5.31481589	     -1.21148061	     -0.00958590	     -0.66982353	      1.95302557	      6.43712714	     -5.00995271	     -4.21751184	      5.91023051	     -3.82857790	      9.28658237	     37.46943162	     -7.75631426	    -19.08324504	    -38.33888069	     -0.06316750	    -11.40659680	      0.94809048	      7.70775466	      5.33120231	      1.34530162
      3.97500000	    -11.27574886	     -2.44846514	     -5.32837945	     -1.20584083	     -0.01051019	     -0.66986838	      1.81363941	      6.42750735	     -5.07268402	     -4.20080563	      6.12243239	     -3.78831301	      9.30798622	     37.64028810	     -7.61751144	    -19.32134976	    -36.19924512	      0.12143206	    -10.78522017	      0.91235836	      7.85980756	      5.30026078	      1.41870967
      3.98000000	    -11.40809224	     -2.43468189	     -5.47354181	     -1.20012031	     -0.01130336	     -0.66976600	      1.57216486	      6.39834748	     -5.12646869	     -4.20235076	      6.35991309	     -3.49326275	      9.34654586	     37.62223264	     -7.57679301	    -19.83544041	    -34.02211019	      0.41277168	     -9.90609593	      0.97235170	      7.90326291	      5.28129903	      1.68129575
      3.98500000	    -11.54973289	     -2.42895920	     -5.53909089	     -1.19437749	     -0.01213928	     -0.66978966	      1.33692487	      6.37179788	     -5.22961347	     -4.20041640	      6.58038448	     -3.26837736	      9.37478019	     37.60835519	     -7.46889154	    -20.24112546	    -31.82287173	      0.59772702	     -8.98333366	      1.14236712	      7.96134855	      5.25392314	      1.83724776
      3.99000000	    -11.68397264	     -2.42989274	     -5.60675807	     -1.18859498	     -0.01298140	     -0.66983501	      1.09355788	      6.34699310	     -5.33557649	     -4.20483218	      6.79288623	     -3.02204069	      9.39950852	     37.56723958	     -7.36563067	    -20.67877809	    -29.62934404	      0.73313976	     -7.95915593	      1.46050136	      8.01253093	      5.23417129	      1.98519215
      3.99500000	    -11.73845656	     -2.41375434	     -5.70381666	     -1.18276201	     -0.01374711	     -0.66987024	      0.78152514	      6.29045998	     -5.46869416	     -4.24869564	      7.04603894	     -2.70340208	      9.43461821	     37.39713790	     -7.24580669	    -21.14716557	    -27.41662333	      0.82743235	     -6.87206810	      2.11505795	      7.97853438	      5.19153074	      2.20284157
      4.00000000	    -11.71139671	     -2.36105513	     -5.71151742	     -1.17676984	     -0.01438549	     -0.67005574	      0.34219501	      6.16427392	     -5.63779054	     -4.22798173	      7.26641715	     -2.28025858	      9.54132698	     37.09581942	     -7.00390029	    -21.56249571	    -25.09302706	      0.40970970	     -6.06790240	      4.14863299	      7.89085525	      5.09227791	      2.26996203
